<svg width="43" height="43" viewBox="0 0 43 43" fill="none" xmlns="http://www.w3.org/2000/svg">
<g filter="url(#filter0_d_1383_228)">
<circle cx="21.5" cy="17.5" r="17.5" fill="white"/>
</g>
<path d="M17.375 28C16.7562 28 16.2266 27.8042 15.7859 27.4125C15.3453 27.0208 15.125 26.55 15.125 26V13H14V11H19.625V10H26.375V11H32V13H30.875V26C30.875 26.55 30.6547 27.0208 30.2141 27.4125C29.7734 27.8042 29.2437 28 28.625 28H17.375ZM28.625 13H17.375V26H28.625V13ZM19.625 24H21.875V15H19.625V24ZM24.125 24H26.375V15H24.125V24Z" fill="black"/>
<defs>
<filter id="filter0_d_1383_228" x="0" y="0" width="43" height="43" filterUnits="userSpaceOnUse" color-interpolation-filters="sRGB">
<feFlood flood-opacity="0" result="BackgroundImageFix"/>
<feColorMatrix in="SourceAlpha" type="matrix" values="0 0 0 0 0 0 0 0 0 0 0 0 0 0 0 0 0 0 127 0" result="hardAlpha"/>
<feOffset dy="4"/>
<feGaussianBlur stdDeviation="2"/>
<feComposite in2="hardAlpha" operator="out"/>
<feColorMatrix type="matrix" values="0 0 0 0 0 0 0 0 0 0 0 0 0 0 0 0 0 0 0.25 0"/>
<feBlend mode="normal" in2="BackgroundImageFix" result="effect1_dropShadow_1383_228"/>
<feBlend mode="normal" in="SourceGraphic" in2="effect1_dropShadow_1383_228" result="shape"/>
</filter>
</defs>
</svg>
