<svg width="43" height="43" viewBox="0 0 43 43" fill="none" xmlns="http://www.w3.org/2000/svg">
<g filter="url(#filter0_d_1383_231)">
<circle cx="21.5" cy="17.5" r="17.5" fill="white"/>
</g>
<path d="M28.0015 26V24.575L18.2265 14.8L16.8015 16.225L26.5765 26H28.0015ZM30.0015 28H25.7515L12.5765 14.8C12.3931 14.6 12.2515 14.3792 12.1515 14.1375C12.0515 13.8958 12.0015 13.6417 12.0015 13.375C12.0015 13.1083 12.0515 12.85 12.1515 12.6C12.2515 12.35 12.4015 12.1333 12.6015 11.95L14.0015 10.575C14.1848 10.375 14.4015 10.2292 14.6515 10.1375C14.9015 10.0458 15.1515 10 15.4015 10C15.6681 10 15.9223 10.0458 16.164 10.1375C16.4056 10.2292 16.6265 10.375 16.8265 10.575L30.0015 23.75V28ZM17.5265 15.525L16.8015 16.225L18.2265 14.8L17.5265 15.525Z" fill="black"/>
<defs>
<filter id="filter0_d_1383_231" x="0" y="0" width="43" height="43" filterUnits="userSpaceOnUse" color-interpolation-filters="sRGB">
<feFlood flood-opacity="0" result="BackgroundImageFix"/>
<feColorMatrix in="SourceAlpha" type="matrix" values="0 0 0 0 0 0 0 0 0 0 0 0 0 0 0 0 0 0 127 0" result="hardAlpha"/>
<feOffset dy="4"/>
<feGaussianBlur stdDeviation="2"/>
<feComposite in2="hardAlpha" operator="out"/>
<feColorMatrix type="matrix" values="0 0 0 0 0 0 0 0 0 0 0 0 0 0 0 0 0 0 0.25 0"/>
<feBlend mode="normal" in2="BackgroundImageFix" result="effect1_dropShadow_1383_231"/>
<feBlend mode="normal" in="SourceGraphic" in2="effect1_dropShadow_1383_231" result="shape"/>
</filter>
</defs>
</svg>
