<svg width="25" height="25" viewBox="0 0 25 25" fill="none" xmlns="http://www.w3.org/2000/svg">
<path d="M22.2237 22.2222V20.243L8.6473 6.66664L6.66813 8.6458L20.2445 22.2222H22.2237ZM25.0015 25H19.0987L0.800076 6.66664C0.545446 6.38886 0.348687 6.08214 0.209798 5.7465C0.0709093 5.41085 0.00146484 5.05784 0.00146484 4.68747C0.00146484 4.3171 0.0709093 3.9583 0.209798 3.61108C0.348687 3.26386 0.55702 2.96293 0.834798 2.7083L2.77924 0.798582C3.03387 0.520803 3.3348 0.318256 3.68202 0.190942C4.02924 0.0636268 4.37646 -3.09348e-05 4.72369 -3.09348e-05C5.09406 -3.09348e-05 5.44707 0.0636268 5.78271 0.190942C6.11836 0.318256 6.42508 0.520803 6.70285 0.798582L25.0015 19.0972V25ZM7.67508 7.67358L6.66813 8.6458L8.6473 6.66664L7.67508 7.67358Z" fill="white"/>
</svg>
